# xmcd
#
# Track frame offsets:
#	150
#	11844
#	32316
#	48557
#	69592
#	83525
#	98111
#	114874
#	132503
#	149234
#	172649
#	189981
#	213762
#
# Disc length: 3129 seconds
#
# Revision: 1
# Processed by: cddbd v1.5.2PL0 Copyright (c) Steve Scherf et al.
# Submitted via: audiograbber 1.83.01
#
DISCID=a60c370d
DTITLE=Band Of Annuals - Repondez
DYEAR=2005
DGENRE=Country/Folk
TTITLE0=Constant Stride
TTITLE1=Sharpshooter
TTITLE2=The Devil Said R.S.V.P.
TTITLE3=Amy's Great Escape
TTITLE4=A Brief Moment Of Happiness
TTITLE5=Follow Your Headlights Home
TTITLE6=San Framcisco, Take Me Back
TTITLE7=David's Country
TTITLE8=A Brief Moment Of Happiness (Part II)
TTITLE9=Ghosts Of Old
TTITLE10=Hotel Soap and Soft Water
TTITLE11=Neon Lights
TTITLE12=Amy's Great Escape (Acoustic Demo)
EXTD=Debut album from Band of Annuals (2005), recently re-released with 3 previ
EXTD=ously unreleased tracks in 2008
EXTT0=
EXTT1=
EXTT2=
EXTT3=
EXTT4=
EXTT5=
EXTT6=
EXTT7=
EXTT8=
EXTT9=
EXTT10=Bonus Track
EXTT11=Bonus Track
EXTT12=Bonus Track
PLAYORDER=
